<?xml version="1.0" encoding="UTF-8"?>
<svg xmlns="http://www.w3.org/2000/svg" version="1.1" width="100" height="100" viewBox="0 0 100 100"><rect x="0" y="0" width="100" height="100" fill="#ffffff"/><g transform="scale(3.03)"><g transform="translate(0,0)"><path fill-rule="evenodd" d="M12 0L12 2L11 2L11 1L10 1L10 2L11 2L11 3L8 3L8 4L9 4L9 5L8 5L8 7L9 7L9 8L6 8L6 9L5 9L5 8L0 8L0 10L1 10L1 12L2 12L2 11L3 11L3 12L5 12L5 11L7 11L7 12L6 12L6 13L7 13L7 14L6 14L6 15L5 15L5 13L3 13L3 15L0 15L0 17L2 17L2 18L1 18L1 19L2 19L2 20L3 20L3 23L2 23L2 24L3 24L3 25L8 25L8 27L9 27L9 28L8 28L8 33L11 33L11 32L13 32L13 33L14 33L14 32L15 32L15 33L16 33L16 30L15 30L15 29L17 29L17 28L16 28L16 26L15 26L15 25L17 25L17 24L15 24L15 23L16 23L16 22L17 22L17 23L19 23L19 24L20 24L20 23L21 23L21 24L22 24L22 23L23 23L23 25L24 25L24 26L23 26L23 27L24 27L24 31L23 31L23 30L22 30L22 29L23 29L23 28L22 28L22 25L20 25L20 26L21 26L21 28L22 28L22 29L21 29L21 30L20 30L20 29L19 29L19 30L20 30L20 32L22 32L22 33L23 33L23 32L24 32L24 33L25 33L25 32L24 32L24 31L27 31L27 30L29 30L29 32L31 32L31 33L32 33L32 32L31 32L31 31L32 31L32 30L31 30L31 29L30 29L30 30L29 30L29 28L32 28L32 29L33 29L33 27L32 27L32 26L33 26L33 24L32 24L32 26L31 26L31 27L30 27L30 25L29 25L29 24L31 24L31 23L32 23L32 22L33 22L33 21L32 21L32 20L31 20L31 19L32 19L32 18L33 18L33 17L32 17L32 16L31 16L31 15L32 15L32 14L33 14L33 13L31 13L31 15L30 15L30 13L29 13L29 12L28 12L28 11L29 11L29 10L28 10L28 11L27 11L27 12L28 12L28 13L29 13L29 14L28 14L28 16L27 16L27 13L25 13L25 14L26 14L26 16L27 16L27 17L25 17L25 18L26 18L26 19L27 19L27 21L25 21L25 19L24 19L24 21L23 21L23 18L24 18L24 17L23 17L23 16L22 16L22 14L21 14L21 13L20 13L20 12L14 12L14 13L13 13L13 14L12 14L12 13L11 13L11 12L9 12L9 13L8 13L8 10L6 10L6 9L10 9L10 11L11 11L11 10L12 10L12 12L13 12L13 10L12 10L12 9L14 9L14 11L16 11L16 10L17 10L17 9L18 9L18 11L19 11L19 10L20 10L20 11L21 11L21 12L22 12L22 13L23 13L23 14L24 14L24 13L23 13L23 11L21 11L21 10L22 10L22 9L23 9L23 10L24 10L24 11L26 11L26 10L27 10L27 9L28 9L28 8L27 8L27 9L26 9L26 8L24 8L24 7L25 7L25 6L24 6L24 7L23 7L23 5L24 5L24 4L23 4L23 3L25 3L25 2L23 2L23 1L25 1L25 0L23 0L23 1L22 1L22 2L21 2L21 6L20 6L20 8L19 8L19 6L18 6L18 8L17 8L17 5L15 5L15 4L18 4L18 5L20 5L20 4L18 4L18 3L19 3L19 2L18 2L18 3L15 3L15 4L14 4L14 3L12 3L12 2L13 2L13 0ZM14 0L14 1L15 1L15 2L16 2L16 1L15 1L15 0ZM17 0L17 1L19 1L19 0ZM20 0L20 1L21 1L21 0ZM8 1L8 2L9 2L9 1ZM11 3L11 4L10 4L10 6L9 6L9 7L10 7L10 6L11 6L11 8L10 8L10 9L12 9L12 8L14 8L14 9L16 9L16 6L15 6L15 5L14 5L14 4L12 4L12 3ZM11 4L11 5L12 5L12 7L13 7L13 6L14 6L14 7L15 7L15 6L14 6L14 5L12 5L12 4ZM21 6L21 7L22 7L22 8L20 8L20 10L21 10L21 9L22 9L22 8L23 8L23 7L22 7L22 6ZM18 8L18 9L19 9L19 8ZM29 8L29 9L30 9L30 8ZM31 8L31 10L33 10L33 9L32 9L32 8ZM1 9L1 10L2 10L2 9ZM4 9L4 10L5 10L5 9ZM24 9L24 10L25 10L25 9ZM30 11L30 12L31 12L31 11ZM0 13L0 14L2 14L2 13ZM9 13L9 14L7 14L7 15L6 15L6 16L4 16L4 15L3 15L3 18L7 18L7 19L6 19L6 20L7 20L7 21L5 21L5 22L4 22L4 23L3 23L3 24L4 24L4 23L5 23L5 24L7 24L7 23L8 23L8 24L9 24L9 25L10 25L10 26L11 26L11 27L10 27L10 28L9 28L9 31L10 31L10 30L11 30L11 31L13 31L13 32L14 32L14 29L15 29L15 28L14 28L14 27L13 27L13 26L11 26L11 25L14 25L14 21L16 21L16 19L15 19L15 18L18 18L18 17L21 17L21 19L20 19L20 18L19 18L19 19L17 19L17 22L18 22L18 21L21 21L21 23L22 23L22 22L23 22L23 23L24 23L24 24L28 24L28 23L30 23L30 22L31 22L31 20L29 20L29 21L27 21L27 22L25 22L25 21L24 21L24 22L23 22L23 21L22 21L22 20L21 20L21 19L22 19L22 18L23 18L23 17L22 17L22 16L18 16L18 13L15 13L15 14L16 14L16 16L17 16L17 17L15 17L15 16L14 16L14 15L12 15L12 14L11 14L11 13ZM20 14L20 15L21 15L21 14ZM9 15L9 16L10 16L10 17L9 17L9 18L8 18L8 21L7 21L7 22L6 22L6 23L7 23L7 22L8 22L8 21L9 21L9 23L10 23L10 21L9 21L9 18L10 18L10 20L12 20L12 19L11 19L11 18L13 18L13 17L14 17L14 18L15 18L15 17L14 17L14 16L12 16L12 15L11 15L11 16L10 16L10 15ZM29 15L29 17L27 17L27 18L28 18L28 19L29 19L29 17L30 17L30 19L31 19L31 16L30 16L30 15ZM6 16L6 17L8 17L8 16ZM3 19L3 20L4 20L4 19ZM14 19L14 20L13 20L13 21L11 21L11 22L13 22L13 21L14 21L14 20L15 20L15 19ZM0 20L0 25L1 25L1 22L2 22L2 21L1 21L1 20ZM29 21L29 22L30 22L30 21ZM19 22L19 23L20 23L20 22ZM27 22L27 23L28 23L28 22ZM25 25L25 28L28 28L28 25ZM26 26L26 27L27 27L27 26ZM11 27L11 29L12 29L12 27ZM18 27L18 28L19 28L19 27ZM13 28L13 29L14 29L14 28ZM25 29L25 30L27 30L27 29ZM17 30L17 31L18 31L18 32L17 32L17 33L19 33L19 31L18 31L18 30ZM30 30L30 31L31 31L31 30ZM22 31L22 32L23 32L23 31ZM27 32L27 33L28 33L28 32ZM0 0L0 7L7 7L7 0ZM1 1L1 6L6 6L6 1ZM2 2L2 5L5 5L5 2ZM26 0L26 7L33 7L33 0ZM27 1L27 6L32 6L32 1ZM28 2L28 5L31 5L31 2ZM0 26L0 33L7 33L7 26ZM1 27L1 32L6 32L6 27ZM2 28L2 31L5 31L5 28Z" fill="#000000"/></g></g></svg>
